# xmcd
#
# Track frame offsets: 
#        150
#        16265
#        27820
#        49760
#        65426
#        85711
#        100881
#        112752
#        126315
#        141057
#        154267
#        167202
#        181416
#        195206
#        214505
#        230323
#
# Disc length: 3269 seconds
#
# Revision: 0
# Processed by: cddbd v1.5.2PL0 Copyright (c) Steve Scherf et al.
# Submitted via: ExactAudioCopy v1.3
#
DISCID=c60cc310
DTITLE=Piauy e Piragua - Minha Mensagem
DYEAR=1900
DGENRE=Country
TTITLE0=Som de viola
TTITLE1=Paixão maluca
TTITLE2=DeSão Paulo à Santa Fé
TTITLE3=Dor de corno
TTITLE4=Minha mensagem
TTITLE5=Coração vadio
TTITLE6=Rosquinha da vizinha
TTITLE7=Amor eterno
TTITLE8=Rei dos canoeiros
TTITLE9=Menina paulista
TTITLE10=Eterno apaixonado
TTITLE11=Viola e violeiro
TTITLE12=Papo duro
TTITLE13=Convocado pelo senhor
TTITLE14=Arena padrão
TTITLE15=Video tape da vida
EXTD=
EXTT0=
EXTT1=
EXTT2=
EXTT3=
EXTT4=
EXTT5=
EXTT6=
EXTT7=
EXTT8=
EXTT9=
EXTT10=
EXTT11=
EXTT12=
EXTT13=
EXTT14=
EXTT15=
PLAYORDER=
